<svg xmlns="http://www.w3.org/2000/svg" viewBox="0 0 205.24 205.24" fill='#a1cb3a'>
<path d="M107.1,62.94H75.26v41.13l7.94,7.53-7.94,7.94v26.6H96.19V121.58l10.91-.1h.45c5.21,0,13.78,0,21.16-3.39,9.3-4.21,14-12.36,14-24.21C142.72,62.94,117.76,62.94,107.1,62.94ZM78.78,102.55V68.88L84,73.93v33.54Zm16.38,2.07,15.66,0c2.08,0,5.57,0,8.66-1.4,2.75-1.24,6-4,6-10.29,0-13-10.73-13-14.78-13H95.15L90.63,75.5c5.83,0,15.27,0,19.33,0,7.57,0,20.26,0,20.87,17.22.2,5.5-1.09,9.73-3.83,12.57-4.34,4.5-11.3,4.52-14,4.52H90Zm1-3.52V83.43h14.53c5.45,0,11.26.73,11.26,9.46,0,3.56-1.29,5.88-4,7.09a18,18,0,0,1-7.21,1.08ZM92.67,82.41v19.73l-5.18,5.18v-30ZM78.78,121,84,115.82v26.8H78.78Zm13.89,21.62H87.49V115.67l5.18,4.92Zm34.59-27.74c-6.69,3-14.79,3.07-19.72,3.07h-.18l-12.23.11-5-4.73H113c3,0,11.15,0,16.56-5.6,3.42-3.55,5-8.64,4.81-15.14C133.62,72,117,71.93,109.92,72H87l-5.67-5.52H107.1c10.42,0,32.1,0,32.1,27.42C139.2,104.37,135.29,111.24,127.26,114.88Z" />
<path d="M102.62,205.24A102.62,102.62,0,1,1,205.24,102.62,102.74,102.74,0,0,1,102.62,205.24Zm0-201.31a98.69,98.69,0,1,0,98.69,98.69A98.8,98.8,0,0,0,102.62,3.93Z" />
<path d="M32.15,44.76a4.08,4.08,0,0,1,3.4.93,4.1,4.1,0,0,1,1.82,3,5.42,5.42,0,0,1-1.3,3.61L34.65,54.2l4,3-1.53,2L26.07,50.9,29,47A5.37,5.37,0,0,1,32.15,44.76ZM34.31,51a2.36,2.36,0,0,0,.58-1.79A2.28,2.28,0,0,0,34,47.76a2.22,2.22,0,0,0-1.64-.48,2.31,2.31,0,0,0-1.58,1l-1.41,1.87,3.54,2.69Z" />
<path d="M43.48,32l2.46-2,12.24,8L56.1,39.61l-2.62-1.73-4,3.23,1.11,3-2.09,1.67Zm5.29,7.27,3-2.44-5.23-3.45Z" />
<path d="M72.24,20.07a3.87,3.87,0,0,1,.25,2.64A4.32,4.32,0,0,1,70.88,25l5.67,3.68-3,1.32-5-3.73L66.8,27,69,32l-2.32,1L61.1,20.3l4.7-2.06a5.66,5.66,0,0,1,4-.45A3.8,3.8,0,0,1,72.24,20.07ZM68.3,24.54A3,3,0,0,0,70,23.13a2.09,2.09,0,0,0,0-1.81,2.2,2.2,0,0,0-1.25-1.27,2.63,2.63,0,0,0-2,.19l-2.39,1.05,1.84,4.21Z" />
<path d="M88.2,11.72l3.13-.44,6.44,13.11-2.64.37-1.37-2.83-5.1.72-.56,3.1-2.65.37Zm.83,9,3.85-.54-2.73-5.64Z" />
<path d="M113.81,11.28a7,7,0,0,1,4.82,2.53,6.68,6.68,0,0,1,1.3,5.27,6.64,6.64,0,0,1-2.61,4.75A7,7,0,0,1,112,25l-4.48-.58,1.79-13.76Zm-3.45,11.24,2,.25a4.13,4.13,0,0,0,3.33-.9,4.77,4.77,0,0,0,1.57-3.14,4.84,4.84,0,0,0-.71-3.48,4.11,4.11,0,0,0-3-1.7l-2-.25Z" />
<path d="M133.93,16l2.36.89-4.87,13L129.05,29Z" />
<path d="M150.11,37.61a3.39,3.39,0,0,1-4.25.18,5.43,5.43,0,0,1-2.49-4,7.63,7.63,0,0,1,1.42-5.3,7.49,7.49,0,0,1,4.52-3.4,6.11,6.11,0,0,1,5,1,5.82,5.82,0,0,1,2.24,2.51,5.57,5.57,0,0,1,.25,3.36L154.29,31a3.33,3.33,0,0,0-1.38-3.1,3.2,3.2,0,0,0-2.93-.33A5.64,5.64,0,0,0,147.05,30a5.78,5.78,0,0,0-1.13,3.46,3,3,0,0,0,1.4,2.52,3,3,0,0,0,2.36.52,3.37,3.37,0,0,0,2.11-1.55l.05-.07-2.57-1.78.9-1.36,4.61,3.07-3.95,5.94-1.71-1.13Z" />
<path d="M172,41.8l-4,8.17,8.79-2.28,2.21,2.69-10.74,8.79-1.61-2,8.16-6.67-9.48,2.66-1-1.27,4.64-9-8.39,6.86-1.59-2L169.74,39Z" />
<polygon points="27.23 134.59 26.53 132.51 21.57 131.96 25.2 128.54 24.48 126.39 16.86 128.95 16.74 128.99 17.28 130.59 22.69 128.77 18.77 132.31 19.12 133.36 24.2 133.81 19.07 135.53 18.95 135.57 19.49 137.18 27.11 134.62 27.23 134.59" />
<path d="M31.37,143.2l-.92-1.76-8.35,1.3-.18,0,.84,1.59,1.77-.3,1.28,2.44-1.26,1.28.83,1.59,5.93-6.11Zm-2.46.14-2.12,2.16-.87-1.66Z" />
<path d="M37.74,154.37a3.4,3.4,0,0,0-.75-2.25l-1.79-2.47-6.63,4.77,1,1.37,2.51-1.8.52.73-1.48,3.22,1.27,1.77,1.4-3.66a2.56,2.56,0,0,0,1.41.54,2.53,2.53,0,0,0,2.55-2.22ZM35,151.89l.79,1.11a1.35,1.35,0,0,1,.33,1,1.15,1.15,0,0,1-.51.77,1.08,1.08,0,0,1-.9.21,1.64,1.64,0,0,1-.92-.71l-.72-1Z" />
<polygon points="45.44 162.07 41.19 162.08 43.4 159.95 42.22 158.72 36.42 164.29 36.34 164.38 37.51 165.61 39.51 163.69 40.24 163.69 39.79 167.97 41.31 169.56 41.89 163.7 47.05 163.75 45.44 162.07" />
<polygon points="45.73 173.23 45.65 173.33 49.86 176.64 50.79 175.45 47.91 173.19 49.04 171.75 51.74 173.87 52.66 172.69 49.97 170.57 51.1 169.13 53.98 171.39 54.9 170.21 50.7 166.91 45.73 173.23" />
<polygon points="58.01 174.19 60.12 175.43 56.79 181.07 56.72 181.18 58.18 182.03 61.57 176.29 63.68 177.54 64.44 176.25 58.77 172.9 58.01 174.19" />
<rect x="63.84" y="181.59" width="8.17" height="1.69" transform="translate(-126.33 169.72) rotate(-65.84)" />
<polygon points="78.9 187.76 77.33 181.79 77.31 181.73 75.62 181.21 73.25 188.89 73.22 189.01 74.83 189.51 76.45 184.26 78.08 190.51 79.67 191 82.04 183.31 82.07 183.19 80.46 182.69 78.9 187.76" />
<path d="M89.17,186.8h0a1.68,1.68,0,0,1,1.49-.51A1.77,1.77,0,0,1,92,187.48l0,.08,1.74-.14,0-.14a3.31,3.31,0,0,0-1-1.74,3.45,3.45,0,0,0-1.83-.78,3.64,3.64,0,0,0-2.9.74,4.41,4.41,0,0,0-1.55,2.94,4.51,4.51,0,0,0,.57,3.16,3.23,3.23,0,0,0,2.35,1.52,2,2,0,0,0,2-.8l0,.93,1.39.2.63-4.27-3.25-.48-.12,0-.18,1.16,1.76.3a1.74,1.74,0,0,1-.65,1.15,1.7,1.7,0,0,1-2.49-.61,3.1,3.1,0,0,1-.25-2A3.14,3.14,0,0,1,89.17,186.8Z" />
<path d="M117.54,190.56l-1.54.17v.12a.92.92,0,0,1-.12.62.54.54,0,0,1-.39.22,1,1,0,0,1-.43,0,2.23,2.23,0,0,1-.42-.23l-.13-.1a8.49,8.49,0,0,0,1-2.59l0-.1-1.26-.52,0,.13a8.24,8.24,0,0,1-.94,2.22l-1.42-1a3.93,3.93,0,0,0,1.29-1,2,2,0,0,0,.38-1.47,1.7,1.7,0,0,0-.88-1.33,3.25,3.25,0,0,0-2.05-.36,3.35,3.35,0,0,0-2,.8,1.76,1.76,0,0,0-.58,1.54,2.46,2.46,0,0,0,1.11,1.73h0c-1.35.43-2,1.18-1.86,2.23a2.26,2.26,0,0,0,1.2,1.72,3.79,3.79,0,0,0,1.91.48l.55,0a4.42,4.42,0,0,0,2.58-1.22,4.16,4.16,0,0,0,1.07.57,2.74,2.74,0,0,0,1.15.12,1.79,1.79,0,0,0,1.41-.79,2.66,2.66,0,0,0,.34-1.71Zm-7.62-3a.72.72,0,0,1,.17-.56,1,1,0,0,1,.66-.31,1.14,1.14,0,0,1,.72.14.68.68,0,0,1,.3.51.9.9,0,0,1-.2.65,2.54,2.54,0,0,1-.78.62l-.24-.17A1.31,1.31,0,0,1,109.92,187.59Zm.42,2.55,2,1.43a3,3,0,0,1-1.48.6,1.92,1.92,0,0,1-1.2-.19.92.92,0,0,1-.48-.71C109.1,190.74,109.49,190.37,110.34,190.14Z" />
<path d="M136.67,184.13l-1.68.65,0,.11a1.29,1.29,0,0,1,0,1,1.68,1.68,0,0,1-1,.78,1.4,1.4,0,0,1-1.4-.21,3.73,3.73,0,0,1-1.16-1.72,3.47,3.47,0,0,1-.23-2.07,1.44,1.44,0,0,1,.93-1,1.26,1.26,0,0,1,1,0,2.17,2.17,0,0,1,.88.68l.07.09,1.53-.94-.07-.11a3,3,0,0,0-1.62-1.32,3.2,3.2,0,0,0-1.09-.13,4.25,4.25,0,0,0-1.29.3,3.23,3.23,0,0,0-2,1.92,4.57,4.57,0,0,0,.2,3.28,4.76,4.76,0,0,0,2,2.58,3.16,3.16,0,0,0,1.51.4,4.17,4.17,0,0,0,3.3-1.83,2.7,2.7,0,0,0,.06-2.33Z" />
<path d="M146.29,177.78a2.45,2.45,0,0,0-.3-1.57,2.29,2.29,0,0,0-1.61-1.22,3.33,3.33,0,0,0-2.32.49L139.39,177l4,7.13,1.48-.83-1.51-2.69.79-.44,3,1.84,1.9-1.06-3.47-1.81A2.62,2.62,0,0,0,146.29,177.78Zm-2.46-1.21a1.13,1.13,0,0,1,.7.6,1.08,1.08,0,0,1,.11.92,1.63,1.63,0,0,1-.82.83l-1.07.6-1.16-2.07,1.2-.67A1.4,1.4,0,0,1,143.83,176.57Z" />
<polygon points="154.55 175.32 153.44 173.86 156.18 171.79 155.28 170.6 152.54 172.67 151.44 171.2 154.36 169 153.46 167.81 149.19 171.03 154.11 177.54 158.38 174.32 157.47 173.12 154.55 175.32" />
<path d="M159.05,162.78l3.72,7.59.07.16,1.27-1.26-.81-1.61,2-1.95,1.59.83,1.27-1.27-7.67-3.89Zm5,2.3-1.33,1.32-1.36-2.71Z" />
<polygon points="169.75 152.71 168.57 151.79 164.6 156.9 164.52 157 165.7 157.91 167.21 155.98 172.38 159.99 172.47 160.07 173.51 158.74 168.24 154.64 169.75 152.71" />
<rect x="174.3" y="145.05" width="1.69" height="8.17" transform="translate(-43.55 220.48) rotate(-58.48)" />
<polygon points="177.61 135.47 176.86 137.08 181.36 141.22 175.3 140.43 174.55 142.06 183.03 142.97 183.12 142.98 183.83 141.45 177.73 135.59 177.61 135.47" />
<polygon points="187.2 127.77 186.13 131.27 184.37 130.73 185.38 127.46 183.95 127.02 182.94 130.3 181.19 129.76 182.26 126.26 180.83 125.82 179.26 130.94 186.96 133.29 187.07 133.33 188.64 128.21 187.2 127.77" />
<path d="M102.62,176.22a73.6,73.6,0,1,1,73.6-73.6A73.68,73.68,0,0,1,102.62,176.22Zm0-143.27a69.67,69.67,0,1,0,69.67,69.67A69.76,69.76,0,0,0,102.62,33Z" />
<path d="M189.48,111.75l-2-.21a86.24,86.24,0,0,0,.46-8.92,84.58,84.58,0,0,0-7.14-34.14l1.83-.8A86.6,86.6,0,0,1,190,102.62,90.49,90.49,0,0,1,189.48,111.75Z" />
<path d="M15.77,111.75a87.68,87.68,0,0,1-.48-9.13,86.44,86.44,0,0,1,7.32-34.94l1.83.8a84.42,84.42,0,0,0-7.15,34.14,86.26,86.26,0,0,0,.47,8.92Z" />
</svg>